# xmcd CD database file
#
# Track frame offsets:
#	150
#	13752
#	26892
#	39697
#	54505
#	67985
#	80605
#	94022
#	106602
#	117542
#	130862
#	144567
#	157685
#	170622
#	181215
#	200615
#	212195
#	223420
#	237070
#	262212
#
# Disc length: 3638 seconds
#
# Revision: 5
# Processed by: cddbd v1.5.2PL0 Copyright (c) Steve Scherf et al.
# Submitted via: CDex 1.70beta3
#
DISCID=250e3414
DTITLE=Etta James - Her Best
DYEAR=1997
DGENRE=Blues
TTITLE0=At Last
TTITLE1=All I Could Do is Cry
TTITLE2=If I Can't Have You (duet with Harvey Fuqua)
TTITLE3=A Sunday Kind of Love
TTITLE4=My Dearest Darling
TTITLE5=Something's Got a Hold on Me
TTITLE6=Trust in Me
TTITLE7=Next Door to the Blues
TTITLE8=Don't Cry Baby
TTITLE9=Fool That I am
TTITLE10=Two Sides to Every Story
TTITLE11=Pushover
TTITLE12=Stop the Wedding
TTITLE13=In the Basement, Part One (duet with Sugar Pie DeSanto)
TTITLE14=Baby, What Do You Want Me to Do (Live)
TTITLE15=I'd Rather Go Blind
TTITLE16=Security
TTITLE17=Loser's Weepers, Part one
TTITLE18=All the Way Down
TTITLE19=Tell Mama
EXTD=
EXTT0=
EXTT1=
EXTT2=
EXTT3=
EXTT4=
EXTT5=
EXTT6=
EXTT7=
EXTT8=
EXTT9=
EXTT10=
EXTT11=
EXTT12=
EXTT13=
EXTT14=
EXTT15=
EXTT16=
EXTT17=
EXTT18=
EXTT19=
PLAYORDER=
